<svg id="a27402c4-a279-4cd5-a9b2-b044f002b470" data-name="Layer 2" xmlns="http://www.w3.org/2000/svg" viewBox="0 0 697.0212 1133.6171">
  <path d="M958.617,531.2128c0-40-192.7659-55.4043-192.7659-55.4043L751.0425,418.617,659.8936,357.34l82.4681,7.4043L709.6808,202.617,511.2979,32.5745S409.6808,96.66,413,169.6808c0,0,47.7447-44.7659,70.7234-39.4893l72.6808,88.34-33.8031-3.9949a3.9062,3.9062,0,0,0-4.3014,3.179L478.3929,436.7169a7.846,7.846,0,0,0,5.7549,9.0028l134.92,34.8854a1.2861,1.2861,0,0,1-.3827,2.53l-165.7273-7.837s-191.3617,10.9787-191.3617,58.5957c0,38.17,142.2978,53.4893,158.5531,51.7022C384.4894,681,363.0425,797.0851,376.7447,832.2979c11.5532,12.8936,21.7021-32.4894,54.1277-58.2766,20.6808,90.6382,4.851,147.5744-9.9575,231.5744,7.1489,26.8086,81.9575-75.3191,81.9575-75.3191s39.0638,101.8723.7659,235.9149c219.0638-97.2767,235.1489-225.9574,235.1489-225.9574s83.7817,94.9632,77.617,61.5318c-26.5531-144-17.8723-228.5106-17.8723-228.5106s61.3639,73.5834,61.8723,62.6383c7.149-153.8724-45.0212-246.4681-45.0212-246.4681S958.617,571.2127,958.617,531.2128Zm-439.7779,128.56c-17.868,14.7016-21.7131-60.39-21.7131-60.39H601.96v34.266s-41.4755.4241-49.7875,2.9686S536.7072,645.071,518.8391,659.7726Zm105.6818,43.5959c-6.8419-1.753,1.1875-6.2765-13.5706-6.2765s-8.9906,5.4765-14.5885,6.2765c-30.7038,3.9015-37.4844-13.9711-37.4891-18.8294s-1.47-18.8293,50.89-18.8293c50.9819,0,48.8545,16.9634,48.8545,16.9634S663.254,703.8188,624.5209,703.3685ZM703.57,660.96c-7.8032,3.9016-20.5823-18.6031-35.0011-23.0136s-51.6818-4.2974-51.6818-4.2974V599.383H723.0781S724.11,637.5505,703.57,660.96Z" transform="translate(-261.5958 -32.5745)" style="fill: #3cfbb5"/>
</svg>
